<svg xmlns="http://www.w3.org/2000/svg" width="1600" height="900" viewBox="0 0 1600 900">
  <defs>
    <style>
      .title{font:700 30px Arial,Helvetica,sans-serif; fill:#13315c}
      .subtitle{font:400 16px Arial,Helvetica,sans-serif; fill:#334e68}
      .h1{font:700 18px Arial,Helvetica,sans-serif; fill:#1f3c88}
      .h2{font:700 15px Arial,Helvetica,sans-serif; fill:#1f3c88}
      .text{font:400 14px Arial,Helvetica,sans-serif; fill:#243b53}
      .small{font:400 12px Arial,Helvetica,sans-serif; fill:#486581}
      .cap{font:700 14px Arial,Helvetica,sans-serif; fill:#0f4c5c}
      .white{fill:#fff}
      .box{fill:#f8fbff;stroke:#2f5fb3;stroke-width:2}
      .box2{fill:#ffffff;stroke:#8aa4d8;stroke-width:1.5}
      .storage{fill:#f5fbfb;stroke:#1f9d9d;stroke-width:2}
      .storage2{fill:#ffffff;stroke:#78c2c4;stroke-width:1.5}
      .pxe{fill:#fbf8ff;stroke:#7b4fc9;stroke-width:2}
      .endpoint{fill:#f7fbfb;stroke:#1b9aaa;stroke-width:2}
      .band{fill:#f7faff;stroke:#9ab1d6;stroke-width:1.5}
      .arrowBlue{stroke:#2f5fb3;stroke-width:3;fill:none;marker-end:url(#arrowBlue)}
      .arrowPurple{stroke:#7b4fc9;stroke-width:3;fill:none;marker-end:url(#arrowPurple)}
      .dashTeal{stroke:#1b9aaa;stroke-width:3;fill:none;stroke-dasharray:8 7;marker-end:url(#arrowTeal)}
      .dashBlue{stroke:#2f5fb3;stroke-width:3;fill:none;stroke-dasharray:8 7;marker-end:url(#arrowBlue)}
      .dashBoth{stroke:#1b9aaa;stroke-width:3;fill:none;stroke-dasharray:8 7;marker-start:url(#arrowTealStart);marker-end:url(#arrowTeal)}
    </style>
    <marker id="arrowBlue" markerWidth="10" markerHeight="10" refX="9" refY="3" orient="auto"><polygon points="0 0, 10 3, 0 6" fill="#2f5fb3"/></marker>
    <marker id="arrowTeal" markerWidth="10" markerHeight="10" refX="9" refY="3" orient="auto"><polygon points="0 0, 10 3, 0 6" fill="#1b9aaa"/></marker>
    <marker id="arrowTealStart" markerWidth="10" markerHeight="10" refX="1" refY="3" orient="auto"><polygon points="10 0, 0 3, 10 6" fill="#1b9aaa"/></marker>
    <marker id="arrowPurple" markerWidth="10" markerHeight="10" refX="9" refY="3" orient="auto"><polygon points="0 0, 10 3, 0 6" fill="#7b4fc9"/></marker>
  </defs>
  <rect x="0" y="0" width="1600" height="900" fill="#ffffff"/>
  <text x="800" y="52" text-anchor="middle" class="title">Heimdal Bare-Metal Adapter</text>
  <text x="800" y="80" text-anchor="middle" class="subtitle">Self-hosted platform for ISO wrapping, golden images, and bare-metal deployment through Heimdal PXE</text>
  <rect x="1220" y="20" rx="12" ry="12" width="340" height="120" class="box2"/>
  <text x="1390" y="48" text-anchor="middle" class="cap">ARCHITECTURAL PRINCIPLE</text>
  <text x="1390" y="78" text-anchor="middle" class="h2">Control plane in VM.</text>
  <text x="1390" y="103" text-anchor="middle" class="h2">Large media stays on external storage.</text>
  <rect x="30" y="120" rx="16" ry="16" width="640" height="410" class="box"/>
  <text x="55" y="158" class="h1">Windows Management Station</text>
  <rect x="48" y="190" rx="12" ry="12" width="190" height="320" class="box2"/>
  <text x="143" y="222" text-anchor="middle" class="h2">Admin Browser</text>
  <rect x="74" y="288" rx="8" ry="8" width="138" height="120" fill="#ffffff" stroke="#6f8fc5" stroke-width="1.5"/>
  <circle cx="143" cy="348" r="34" fill="none" stroke="#2f5fb3" stroke-width="3"/>
  <ellipse cx="143" cy="348" rx="20" ry="34" fill="none" stroke="#2f5fb3" stroke-width="2"/>
  <line x1="109" y1="348" x2="177" y2="348" stroke="#2f5fb3" stroke-width="2"/>
  <line x1="143" y1="314" x2="143" y2="382" stroke="#2f5fb3" stroke-width="2"/>
  <rect x="320" y="190" rx="12" ry="12" width="325" height="320" class="box2"/>
  <text x="482" y="222" text-anchor="middle" class="h2">Bare-Metal Adapter VM</text>
  <rect x="338" y="248" rx="8" ry="8" width="140" height="48" class="white" stroke="#8aa4d8" stroke-width="1.2"/><text x="408" y="278" text-anchor="middle" class="text">Web UI</text>
  <rect x="488" y="248" rx="8" ry="8" width="140" height="48" class="white" stroke="#8aa4d8" stroke-width="1.2"/><text x="558" y="278" text-anchor="middle" class="text">REST API</text>
  <rect x="338" y="306" rx="8" ry="8" width="140" height="48" class="white" stroke="#8aa4d8" stroke-width="1.2"/><text x="408" y="336" text-anchor="middle" class="text">PostgreSQL</text>
  <rect x="488" y="306" rx="8" ry="8" width="140" height="48" class="white" stroke="#8aa4d8" stroke-width="1.2"/><text x="558" y="336" text-anchor="middle" class="text">Redis</text>
  <rect x="338" y="364" rx="8" ry="8" width="140" height="48" class="white" stroke="#8aa4d8" stroke-width="1.2"/><text x="408" y="394" text-anchor="middle" class="text">Media Worker</text>
  <rect x="488" y="364" rx="8" ry="8" width="140" height="48" class="white" stroke="#8aa4d8" stroke-width="1.2"/><text x="558" y="394" text-anchor="middle" class="text">Image Worker</text>
  <rect x="338" y="422" rx="8" ry="8" width="290" height="38" class="white" stroke="#8aa4d8" stroke-width="1.2"/><text x="483" y="446" text-anchor="middle" class="text">Capture/Deploy Workers</text>
  <rect x="338" y="468" rx="8" ry="8" width="290" height="28" class="white" stroke="#8aa4d8" stroke-width="1.2"/><text x="483" y="487" text-anchor="middle" class="small">Small Local Cache / Scratch Space</text>
  <path d="M240 380 L316 380" class="arrowBlue"/><text x="278" y="324" text-anchor="middle" class="text">Manage /</text><text x="278" y="344" text-anchor="middle" class="text">Build /</text><text x="278" y="364" text-anchor="middle" class="text">Monitor</text>
  <rect x="340" y="580" rx="14" ry="14" width="620" height="220" class="storage"/>
  <text x="650" y="615" text-anchor="middle" class="h1" fill="#0f766e">External-First Storage</text>
  <rect x="360" y="630" rx="10" ry="10" width="135" height="100" class="storage2"/><text x="427" y="688" text-anchor="middle" class="text">ISO Library</text>
  <rect x="510" y="630" rx="10" ry="10" width="135" height="100" class="storage2"/><text x="577" y="688" text-anchor="middle" class="text">Golden Images</text>
  <rect x="660" y="630" rx="10" ry="10" width="135" height="100" class="storage2"/><text x="727" y="688" text-anchor="middle" class="text">Driver Packs</text>
  <rect x="810" y="630" rx="10" ry="10" width="130" height="100" class="storage2"/><text x="875" y="675" text-anchor="middle" class="text">Build Output /</text><text x="875" y="695" text-anchor="middle" class="text">Deployment Capsules</text>
  <text x="650" y="748" text-anchor="middle" class="small">Storage Backends</text>
  <rect x="360" y="762" rx="8" ry="8" width="125" height="28" class="white" stroke="#78c2c4" stroke-width="1.2"/><text x="422" y="781" text-anchor="middle" class="small">SMB</text>
  <rect x="500" y="762" rx="8" ry="8" width="125" height="28" class="white" stroke="#78c2c4" stroke-width="1.2"/><text x="562" y="781" text-anchor="middle" class="small">NFS</text>
  <rect x="640" y="762" rx="8" ry="8" width="145" height="28" class="white" stroke="#78c2c4" stroke-width="1.2"/><text x="712" y="781" text-anchor="middle" class="small">S3-Compatible</text>
  <rect x="800" y="762" rx="8" ry="8" width="140" height="28" class="white" stroke="#78c2c4" stroke-width="1.2"/><text x="870" y="781" text-anchor="middle" class="small">Windows Shares</text>
  <path d="M530 530 L530 575" class="arrowBlue"/><text x="552" y="560" class="text">Read / Write Media</text>
  <path d="M130 510 L130 700 L336 700" class="dashBlue"/><text x="167" y="627" class="text">Browser uploads</text><text x="167" y="646" class="text">stream directly to</text><text x="167" y="665" class="text">external storage</text>
  <rect x="935" y="215" rx="14" ry="14" width="255" height="210" class="pxe"/>
  <text x="1062" y="255" text-anchor="middle" class="h1" fill="#6f42c1">Heimdal PXE /</text><text x="1062" y="278" text-anchor="middle" class="h1" fill="#6f42c1">Network OS Deployment</text>
  <rect x="980" y="350" width="36" height="48" fill="#fff" stroke="#7b4fc9" stroke-width="1.5"/><text x="998" y="380" text-anchor="middle" class="small">PXE</text>
  <rect x="1045" y="350" width="36" height="48" fill="#fff" stroke="#7b4fc9" stroke-width="1.5"/><text x="1063" y="380" text-anchor="middle" class="small">PXE</text>
  <rect x="1110" y="350" width="36" height="48" fill="#fff" stroke="#7b4fc9" stroke-width="1.5"/><text x="1128" y="380" text-anchor="middle" class="small">PXE</text>
  <line x1="1062" y1="305" x2="1062" y2="338" stroke="#7b4fc9" stroke-width="2"/><line x1="998" y1="338" x2="1128" y2="338" stroke="#7b4fc9" stroke-width="2"/><line x1="998" y1="338" x2="998" y2="350" stroke="#7b4fc9" stroke-width="2"/><line x1="1063" y1="338" x2="1063" y2="350" stroke="#7b4fc9" stroke-width="2"/><line x1="1128" y1="338" x2="1128" y2="350" stroke="#7b4fc9" stroke-width="2"/>
  <path d="M960 664 L1040 664 L1040 430" class="arrowPurple"/><text x="864" y="525" class="text" fill="#6f42c1">Publish or upload</text><text x="864" y="545" class="text" fill="#6f42c1">deployment media</text>
  <rect x="1295" y="232" rx="14" ry="14" width="260" height="290" class="endpoint"/>
  <text x="1425" y="270" text-anchor="middle" class="h1" fill="#0f766e">Bare-Metal Endpoints</text>
  <rect x="1315" y="300" rx="10" ry="10" width="220" height="62" class="white" stroke="#97d6d6" stroke-width="1.2"/><text x="1425" y="338" text-anchor="middle" class="text">Physical PCs</text>
  <rect x="1315" y="368" rx="10" ry="10" width="220" height="62" class="white" stroke="#97d6d6" stroke-width="1.2"/><text x="1425" y="406" text-anchor="middle" class="text">Servers</text>
  <rect x="1315" y="436" rx="10" ry="10" width="220" height="62" class="white" stroke="#97d6d6" stroke-width="1.2"/><text x="1425" y="474" text-anchor="middle" class="text">Reference Machines</text>
  <path d="M1192 320 L1289 320" class="arrowPurple"/><text x="1240" y="305" text-anchor="middle" class="text" fill="#6f42c1">PXE boot</text>
  <path d="M670 334 L930 334" class="dashBoth"/><text x="801" y="319" text-anchor="middle" class="text">Capture / Deploy orchestration</text>
  <path d="M965 690 L1400 690 L1400 528" class="dashTeal"/><text x="1248" y="666" text-anchor="middle" class="text">Image / Installer data path</text>
  <rect x="25" y="820" rx="12" ry="12" width="1550" height="60" class="band"/>
  <text x="95" y="857" text-anchor="middle" class="h2">Platform</text><text x="95" y="875" text-anchor="middle" class="h2">Capabilities</text>
  <text x="250" y="857" text-anchor="middle" class="text">ISO Analysis</text><text x="430" y="857" text-anchor="middle" class="text">Adapter Engine</text><text x="635" y="857" text-anchor="middle" class="text">Installer Capsules</text><text x="855" y="857" text-anchor="middle" class="text">Golden Image Capture</text><text x="1075" y="857" text-anchor="middle" class="text">Golden Image Deploy</text><text x="1280" y="857" text-anchor="middle" class="text">Driver Matching</text><text x="1470" y="857" text-anchor="middle" class="text">Future PXE Publishing</text>
  <line x1="180" y1="832" x2="180" y2="872" stroke="#d4deee" stroke-width="2"/><line x1="340" y1="832" x2="340" y2="872" stroke="#d4deee" stroke-width="2"/><line x1="525" y1="832" x2="525" y2="872" stroke="#d4deee" stroke-width="2"/><line x1="745" y1="832" x2="745" y2="872" stroke="#d4deee" stroke-width="2"/><line x1="965" y1="832" x2="965" y2="872" stroke="#d4deee" stroke-width="2"/><line x1="1185" y1="832" x2="1185" y2="872" stroke="#d4deee" stroke-width="2"/><line x1="1385" y1="832" x2="1385" y2="872" stroke="#d4deee" stroke-width="2"/>
</svg>
